<svg xmlns="http://www.w3.org/2000/svg" width="20.275" height="19.008" viewBox="0 0 20.275 19.008">
  <g id="_6351904_filter_filtering_filters_funnel_sort_icon" data-name="6351904_filter_filtering_filters_funnel_sort_icon" transform="translate(-2 -3)">
    <path id="Path_3" data-name="Path 3" d="M4.033,6.59H2.845a.845.845,0,1,1,0-1.69H4.033a2.747,2.747,0,0,1,5.226,0H21.43a.845.845,0,0,1,0,1.69H9.26a2.747,2.747,0,0,1-5.226,0Zm1.135-.845A1.478,1.478,0,1,1,6.646,7.224,1.478,1.478,0,0,1,5.168,5.746Z" fill="#4f4e60" fill-rule="evenodd"/>
    <path id="Path_4" data-name="Path 4" d="M2.845,14.59h12.2a2.747,2.747,0,0,0,5.226,0H21.43a.845.845,0,0,0,0-1.69H20.275a2.747,2.747,0,0,0-5.226,0H2.845a.845.845,0,1,0,0,1.69Zm14.817-2.323a1.478,1.478,0,1,0,1.478,1.478A1.478,1.478,0,0,0,17.662,12.267Z" transform="translate(0 -1.242)" fill="#4f4e60" fill-rule="evenodd"/>
    <path id="Path_5" data-name="Path 5" d="M9.1,22.59H2.845a.845.845,0,1,1,0-1.69H9.1a2.747,2.747,0,0,1,5.226,0h7.1a.845.845,0,0,1,0,1.69h-7.1a2.747,2.747,0,0,1-5.226,0Zm1.135-.845a1.478,1.478,0,1,1,1.478,1.478A1.478,1.478,0,0,1,10.237,21.746Z" transform="translate(0 -2.483)" fill="#4f4e60" fill-rule="evenodd"/>
  </g>
</svg>
