<svg id="ascending-sort-svgrepo-com" xmlns="http://www.w3.org/2000/svg" width="20.591" height="15.758" viewBox="0 0 20.591 15.758">
  <path id="Path_6" data-name="Path 6" d="M0,5.143v-.7a.7.7,0,0,1,.7-.7h9.8a.7.7,0,0,1,.7.7v.7a.7.7,0,0,1-.7.7H.7A.7.7,0,0,1,0,5.143Z" transform="translate(9.381 -3.736)" fill="#4f4e60"/>
  <path id="Path_7" data-name="Path 7" d="M.7,66.736H9.185a.7.7,0,0,1,.7.7v.7a.7.7,0,0,1-.7.7H.7a.7.7,0,0,1-.7-.7v-.7A.7.7,0,0,1,.7,66.736Z" transform="translate(10.702 -62.305)" fill="#4f4e60"/>
  <path id="Path_8" data-name="Path 8" d="M.7,129.736H7.864a.7.7,0,0,1,.7.7v.7a.7.7,0,0,1-.7.7H.7a.7.7,0,0,1-.7-.7v-.7A.7.7,0,0,1,.7,129.736Z" transform="translate(12.023 -120.873)" fill="#4f4e60"/>
  <path id="Path_9" data-name="Path 9" d="M.7,199.736h5.84a.7.7,0,0,1,.7.7v.7a.7.7,0,0,1-.7.7H.7a.7.7,0,0,1-.7-.7v-.7A.7.7,0,0,1,.7,199.736Z" transform="translate(13.344 -186.442)" fill="#4f4e60"/>
  <path id="Path_11" data-name="Path 11" d="M154.308,20.1l.386-.386a.546.546,0,0,1,.772,0l1.877,1.877V9.282a.546.546,0,0,1,.546-.546h.546a.546.546,0,0,1,.546.546v12.3l1.877-1.877a.546.546,0,0,1,.772,0l.386.386a.546.546,0,0,1,0,.772l-3.467,3.467a.546.546,0,0,1-.772,0l-3.467-3.467A.546.546,0,0,1,154.308,20.1Z" transform="translate(-154.148 -8.736)" fill="#4f4e60"/>
</svg>
