<svg id="Capa_1" enable-background="new 0 0 512 512" height="512" viewBox="0 0 512 512" width="512" xmlns="http://www.w3.org/2000/svg"><g><path d="m418.295 321.153c-3.302-2.912-7.704-4.265-12.074-3.713-15.416 1.946-31.079 3.615-46.554 4.96-4.126.358-7.181 3.995-6.822 8.121.358 4.126 3.993 7.186 8.121 6.822 15.668-1.362 31.527-3.051 47.134-5.022.162-.021.416.181.396.354v14.465c-50.504 6.47-101.771 9.758-152.496 9.758s-101.992-3.288-152.496-9.758v-14.465c-.02-.171.225-.376.396-.354 50.334 6.355 101.508 9.577 152.101 9.577 23.173 0 46.666-.678 69.828-2.015 4.135-.239 7.294-3.785 7.055-7.92s-3.784-7.292-7.919-7.056c-22.875 1.321-46.078 1.99-68.964 1.99-49.966 0-100.508-3.183-150.222-9.459-4.372-.552-8.771.802-12.074 3.713-3.305 2.914-5.2 7.113-5.2 11.522v48.423c0 7.033 4.758 13.153 11.571 14.883 23.949 6.082 58.874 19.834 89.256 50.816 15.822 16.13 28.518 34.974 37.734 56.007 2.448 5.586 7.969 9.195 14.065 9.195h29.74c6.096 0 11.617-3.609 14.066-9.196 9.217-21.034 21.912-39.877 37.734-56.007 30.381-30.981 65.307-44.734 89.255-50.815 6.813-1.73 11.571-7.85 11.571-14.883v-48.423c-.001-4.406-1.897-8.606-5.202-11.52zm-9.799 59.946c0 .166-.105.305-.263.345-25.808 6.553-63.459 21.389-96.273 54.85-17.099 17.433-30.813 37.784-40.763 60.489-.06.136-.182.217-.327.217h-29.74c-.146 0-.268-.081-.327-.216-9.949-22.704-23.664-43.056-40.763-60.489-32.814-33.462-70.466-48.298-96.273-54.852-.157-.04-.263-.178-.263-.344v-18.833c50.518 6.391 101.775 9.633 152.496 9.633s101.978-3.243 152.496-9.633zm-257.968-76.219h.042c.089 0 .178-.001.267-.005 14.77-.528 37.232-3.934 60.361-17.162 8.521-4.866 16.454-10.693 23.683-17.367 5.386 5.457 12.862 8.847 21.117 8.847s15.731-3.39 21.117-8.847c7.23 6.674 15.161 12.5 23.679 17.365 23.133 13.23 45.596 16.637 60.366 17.165.09.003.179.005.269.005h.041c43.124-.224 77.368-36.464 76.035-79.403-.738-23.765-4.423-47.435-10.954-70.353l-41.636-146.043c-1.519-5.348-6.459-9.082-12.016-9.082h-14.16c-3.721 0-7.221 1.638-9.603 4.494-2.38 2.854-3.362 6.586-2.697 10.235l21.289 117.441c.332 1.84-.558 3.664-2.209 4.537-18.404 9.71-35.638 21.584-51.225 35.293-17.039 14.993-32.07 32.157-44.777 51.089-4.058-2.085-8.651-3.27-13.518-3.27s-9.46 1.185-13.518 3.27c-12.707-18.932-27.738-36.096-44.779-51.09-15.585-13.708-32.819-25.581-51.218-35.289-1.656-.875-2.545-2.699-2.215-4.531l21.289-117.442c.667-3.656-.316-7.389-2.696-10.242-2.382-2.857-5.882-4.495-9.603-4.495h-14.159c-5.556 0-10.497 3.734-12.013 9.074l-23.262 81.59c-1.136 3.983 1.173 8.133 5.156 9.269 3.98 1.138 8.133-1.172 9.269-5.156l22.745-79.777h9.271l-20.757 114.51c-1.495 8.297 2.51 16.519 9.971 20.463 17.361 9.16 33.617 20.36 48.315 33.287 16.596 14.604 31.177 31.39 43.408 49.949-3.087 4.682-4.89 10.281-4.89 16.296 0 2.557.325 5.04.936 7.409-7.062 6.925-14.945 12.895-23.492 17.776-20.396 11.665-40.213 14.703-53.298 15.189-34.744 1.29-62.044-29.385-60.972-63.937.699-22.532 4.194-44.976 10.386-66.706l8.811-30.904c1.136-3.983-1.173-8.133-5.156-9.269-3.979-1.137-8.133 1.172-9.269 5.156l-8.811 30.904c-6.531 22.917-10.216 46.587-10.953 70.336-1.331 42.877 32.806 79.238 76.033 79.421zm173.675-121.618c14.7-12.929 30.956-24.128 48.322-33.292 7.457-3.941 11.461-12.164 9.965-20.469l-20.757-114.501h9.271l41.122 144.236c6.192 21.731 9.687 44.174 10.387 66.724 1.069 34.456-26.285 65.207-60.972 63.919-13.084-.486-32.901-3.524-53.302-15.191-8.544-4.879-16.426-10.849-23.488-17.773.611-2.369.936-4.852.936-7.409 0-6.015-1.803-11.614-4.89-16.296 12.231-18.56 26.811-35.346 43.406-49.948zm-68.204 51.556c8.099 0 14.687 6.588 14.687 14.687s-6.588 14.687-14.687 14.687-14.687-6.588-14.687-14.687 6.589-14.687 14.687-14.687z"/></g></svg>