<svg xmlns="http://www.w3.org/2000/svg" width="363.085" height="511.997" viewBox="0 0 363.085 511.997">
  <g id="bikini" transform="translate(-74.457)">
    <path id="Path_961" data-name="Path 961" d="M418.3,321.153a15.353,15.353,0,0,0-12.074-3.713c-15.416,1.946-31.079,3.615-46.554,4.96a7.5,7.5,0,1,0,1.3,14.943c15.668-1.362,31.527-3.051,47.134-5.022.162-.021.416.181.4.354V347.14A1204.044,1204.044,0,0,1,256,356.9a1204.044,1204.044,0,0,1-152.5-9.758V332.675c-.02-.171.225-.376.4-.354A1218.754,1218.754,0,0,0,256,341.9c23.173,0,46.666-.678,69.828-2.015a7.5,7.5,0,0,0-.864-14.976c-22.875,1.321-46.078,1.99-68.964,1.99a1203.84,1203.84,0,0,1-150.222-9.459,15.349,15.349,0,0,0-17.274,15.235V381.1a15.34,15.34,0,0,0,11.571,14.883c23.949,6.082,58.874,19.834,89.256,50.816A186.52,186.52,0,0,1,227.066,502.8a15.359,15.359,0,0,0,14.065,9.2h29.74a15.361,15.361,0,0,0,14.066-9.2,186.526,186.526,0,0,1,37.734-56.007c30.381-30.981,65.307-44.734,89.255-50.815A15.34,15.34,0,0,0,423.5,381.1V332.673a15.37,15.37,0,0,0-5.2-11.52ZM408.5,381.1a.348.348,0,0,1-.263.345c-25.808,6.553-63.459,21.389-96.273,54.85A201.5,201.5,0,0,0,271.2,496.783a.35.35,0,0,1-.327.217H241.13a.349.349,0,0,1-.327-.216A201.494,201.494,0,0,0,200.04,436.3c-32.814-33.462-70.466-48.3-96.273-54.852a.348.348,0,0,1-.263-.344V362.266A1218.928,1218.928,0,0,0,256,371.9a1219.119,1219.119,0,0,0,152.5-9.633ZM150.528,304.88h.042c.089,0,.178,0,.267-.005A131.624,131.624,0,0,0,211.2,287.713a129.8,129.8,0,0,0,23.683-17.367,29.626,29.626,0,0,0,42.234,0,129.855,129.855,0,0,0,23.679,17.365,131.639,131.639,0,0,0,60.366,17.165c.09,0,.179.005.269.005h.041c43.124-.224,77.368-36.464,76.035-79.4a289.746,289.746,0,0,0-10.954-70.353L384.915,9.082A12.541,12.541,0,0,0,372.9,0h-14.16a12.5,12.5,0,0,0-12.3,14.729L367.728,132.17a4.261,4.261,0,0,1-2.209,4.537,263.212,263.212,0,0,0-96,86.382,29.576,29.576,0,0,0-27.036,0A263.858,263.858,0,0,0,197.7,172a264.6,264.6,0,0,0-51.218-35.289,4.259,4.259,0,0,1-2.215-4.531L165.558,14.737A12.5,12.5,0,0,0,153.259,0H139.1a12.538,12.538,0,0,0-12.013,9.074l-23.262,81.59a7.5,7.5,0,0,0,14.425,4.113L140.995,15h9.271L129.509,129.51a19.212,19.212,0,0,0,9.971,20.463,249.615,249.615,0,0,1,48.315,33.287A248.976,248.976,0,0,1,231.2,233.209a29.656,29.656,0,0,0-3.954,23.705,115,115,0,0,1-23.492,17.776,116.559,116.559,0,0,1-53.3,15.189c-34.744,1.29-62.044-29.385-60.972-63.937a274.719,274.719,0,0,1,10.386-66.706l8.811-30.9a7.5,7.5,0,1,0-14.425-4.113l-8.811,30.9a289.674,289.674,0,0,0-10.953,70.336C73.164,268.336,107.3,304.7,150.528,304.88ZM324.2,183.262a249.685,249.685,0,0,1,48.322-33.292A19.213,19.213,0,0,0,382.49,129.5L361.733,15H371l41.122,144.236a274.785,274.785,0,0,1,10.387,66.724c1.069,34.456-26.285,65.207-60.972,63.919a116.573,116.573,0,0,1-53.3-15.191,115,115,0,0,1-23.488-17.773A29.655,29.655,0,0,0,280.8,233.21,248.909,248.909,0,0,1,324.2,183.262ZM256,234.818a14.687,14.687,0,1,1-14.687,14.687A14.7,14.7,0,0,1,256,234.818Z" fill="#fff"/>
  </g>
</svg>
