<svg xmlns="http://www.w3.org/2000/svg" width="448.323" height="511.999" viewBox="0 0 448.323 511.999">
  <g id="blouse" transform="translate(-31.839 0)">
    <path id="Path_957" data-name="Path 957" d="M477.923,182.052l-23.455-42.743a7.5,7.5,0,0,0-13.151,7.217l23.455,42.742a3.084,3.084,0,0,1-.937,4.015l-50.1,35.063a3.07,3.07,0,0,1-4.137-.546l-18.885-22.549,6.8-38.01a7.5,7.5,0,0,0-14.766-2.642l-7.414,41.422c0,.012-.005.024-.007.036l-19.5,108.815h-11.45a36.567,36.567,0,0,0-16.13,3.734,17.527,17.527,0,0,0-10.833-3.734H305.649a17.548,17.548,0,0,0-11.947,4.682,36.761,36.761,0,0,0-17.933-4.682H263.5V169.4L285.586,97.03a30.48,30.48,0,0,0,1.328-8.874l.006-6.251L308.6,98.494a15.458,15.458,0,0,0,24.215-7.908c9.2-31.42,9.046-30.351,9.513-32.83l44.051,17.062A58.323,58.323,0,0,1,416.4,101.107l7.929,14.449a7.5,7.5,0,0,0,13.151-7.217L429.547,93.89A73.351,73.351,0,0,0,391.8,60.83L340.348,40.9a28.448,28.448,0,0,0-3.844-6.277L316.1,9.365C313.442,5.7,307.633-.095,303.048,0h-.008a36.711,36.711,0,0,0-10.3,1.506,128.75,128.75,0,0,1-73.491,0A36.84,36.84,0,0,0,208.788,0c-4.5,0-10.254,5.73-12.89,9.364L175.5,34.626a28.451,28.451,0,0,0-3.845,6.277L120.206,60.832a73.346,73.346,0,0,0-37.75,33.059L34.078,182.052a18.063,18.063,0,0,0,5.486,23.52l50.1,35.065a17.989,17.989,0,0,0,24.236-3.206L124.737,224.5l17.3,96.527c2.448,13.656-1.555,21.75-4.191,31.346-9.194,30.642-25.129,90.534-26.913,142.664A16.387,16.387,0,0,0,127.31,512H384.694a16.38,16.38,0,0,0,16.376-16.967c-1.783-52.114-17.71-111.99-26.906-142.639-2.314-8.572-6.745-17.151-4.2-31.371l17.3-96.528L398.1,237.431a17.988,17.988,0,0,0,24.236,3.2l50.1-35.064a18.065,18.065,0,0,0,5.484-23.519Zm-142.9,149.941a21.606,21.606,0,0,1,9.356-2.121h9.861a61.99,61.99,0,0,0,2.54,16.99H343.694a21.585,21.585,0,0,1-8.682-1.811c.03-.7.018-12.757.01-13.058Zm-31.985.493a2.617,2.617,0,0,1,2.614-2.614h11.763a2.618,2.618,0,0,1,2.614,2.614v11.763a2.617,2.617,0,0,1-2.614,2.613H305.651a2.617,2.617,0,0,1-2.614-2.613ZM273.175,62.548a7.467,7.467,0,0,0-1.241,4.751l-.019,20.843a15.471,15.471,0,0,1-.676,4.51L256,142.587,240.761,92.653a15.534,15.534,0,0,1-.675-4.511l-.019-20.852a7.469,7.469,0,0,0-1.242-4.743l-6.71-10.041a156.146,156.146,0,0,0,47.77,0Zm37-36.65,14.658,18.151a13.445,13.445,0,0,1,2.438,12.238L318.422,86.35a.446.446,0,0,1-.708.231l-28.159-21.55c9.733-15.972,18.256-23.119,20.619-39.133Zm-93.863-9.624a143.775,143.775,0,0,0,79.379,0c-.21,1.647,1.055,9.182-4.108,18.515a141.243,141.243,0,0,1-71.162,0C215.2,25.357,216.55,18.149,216.311,16.274ZM187.168,44.05,201.826,25.9c2.365,16.016,10.875,23.143,20.62,39.136L194.287,86.584a.448.448,0,0,1-.709-.231L184.731,56.29a13.452,13.452,0,0,1,2.437-12.24Zm-50.5,162.007a.007.007,0,0,0,0,0L129.259,164.6a7.5,7.5,0,0,0-14.766,2.641l6.795,38.01L102.4,227.8a3.073,3.073,0,0,1-4.137.548l-50.1-35.064a3.083,3.083,0,0,1-.937-4.014L95.6,101.108A58.316,58.316,0,0,1,125.624,74.82l44.052-17.063c.465,2.47.221,1.086,9.512,32.83A15.457,15.457,0,0,0,203.4,98.5l21.678-16.59.006,6.251a30.448,30.448,0,0,0,1.328,8.875L248.5,169.4V314.872H156.172ZM248.5,497H127.308a1.391,1.391,0,0,1-1.386-1.453c1.632-47.7,15.631-102.523,24.753-133.685h21.02a7.5,7.5,0,0,0,0-15H155.223a61.984,61.984,0,0,0,2.539-16.99h118.01a22.849,22.849,0,0,1,12.266,3.717v9.658a22.582,22.582,0,0,1-12.076,3.616H206.779a7.5,7.5,0,0,0,0,15H248.5Zm137.577-1.454A1.39,1.39,0,0,1,384.692,497H263.5V361.862h12.461a36.735,36.735,0,0,0,17.816-4.616A17.678,17.678,0,0,0,296.2,359.1c-4.05,10.189-12.214,20.551-12.214,39.559a7.5,7.5,0,0,0,15,0c0-15.189,6.625-22.644,12.486-36.8h.19c5.653,13.564,12.426,21.261,12.426,36.511a7.5,7.5,0,0,0,15,0c0-19.089-8.222-29.467-12.155-39.307q.54-.348,1.052-.733a36.512,36.512,0,0,0,15.712,3.53h17.632c9.121,31.162,23.121,85.991,24.752,133.684Z" fill="#fff"/>
  </g>
</svg>
