<svg id="Capa_1" enable-background="new 0 0 512 512" height="512" viewBox="0 0 512 512" width="512" xmlns="http://www.w3.org/2000/svg"><g><path d="m477.923 182.052-23.455-42.743c-1.992-3.631-6.552-4.958-10.184-2.967-3.631 1.993-4.959 6.552-2.967 10.184l23.455 42.742c.759 1.384.356 3.109-.937 4.015l-50.102 35.063c-1.319.925-3.102.692-4.137-.546l-18.885-22.549 6.803-38.01c.729-4.077-1.984-7.975-6.062-8.704-4.081-.728-7.974 1.984-8.704 6.062l-7.414 41.422c-.002.012-.005.024-.007.036l-19.502 108.815h-11.45c-5.632 0-11.127 1.281-16.13 3.734-2.99-2.339-6.752-3.734-10.833-3.734h-11.763c-4.606 0-8.805 1.777-11.947 4.682-5.471-3.064-11.665-4.682-17.933-4.682h-12.269v-145.47l22.086-72.372c.879-2.88 1.325-5.866 1.328-8.874l.006-6.251 21.678 16.589c8.583 6.571 21.149 2.511 24.215-7.908 9.197-31.42 9.046-30.351 9.513-32.83l44.051 17.062c12.77 4.947 23.431 14.283 30.019 26.289l7.929 14.449c2.002 3.648 6.57 4.949 10.184 2.967 3.631-1.993 4.959-6.552 2.967-10.184l-7.929-14.449c-8.285-15.098-21.692-26.838-37.751-33.06l-51.448-19.928c-.993-2.225-2.278-4.337-3.844-6.277l-20.401-25.26c-2.661-3.67-8.47-9.46-13.055-9.364-.003 0-.005 0-.008 0-3.52.016-6.983.522-10.295 1.506-24.021 7.14-49.468 7.14-73.491 0-3.423-1.016-6.964-1.507-10.466-1.507-4.499 0-10.254 5.73-12.89 9.364l-20.4 25.262c-1.566 1.94-2.852 4.052-3.845 6.277l-51.447 19.929c-16.058 6.221-29.465 17.961-37.75 33.059l-48.378 88.161c-4.448 8.106-2.09 18.218 5.486 23.52l50.104 35.065c7.746 5.418 18.164 4.042 24.236-3.206l10.833-12.935 17.3 96.527c2.448 13.656-1.555 21.75-4.191 31.346-9.194 30.642-25.129 90.534-26.913 142.664-.314 9.209 7.025 16.966 16.377 16.966h257.384c9.292 0 16.695-7.69 16.376-16.967-1.783-52.114-17.71-111.99-26.906-142.639-2.314-8.572-6.745-17.151-4.198-31.371l17.299-96.528 10.835 12.937c6.068 7.244 16.486 8.625 24.236 3.204l50.103-35.064c7.573-5.301 9.931-15.413 5.484-23.519zm-142.901 149.941c2.909-1.394 6.093-2.121 9.356-2.121h9.861c.056 5.746.907 11.48 2.54 16.99h-13.085c-3.019 0-5.961-.619-8.682-1.811.03-.703.018-12.757.01-13.058zm-31.985.493c0-1.441 1.173-2.614 2.614-2.614h11.763c1.453 0 2.614 1.186 2.614 2.614v11.763c0 1.432-1.165 2.613-2.614 2.613h-11.763c-1.446 0-2.614-1.178-2.614-2.613zm-29.862-269.938c-.971 1.452-1.369 3.127-1.241 4.751l-.019 20.843c-.001 1.528-.229 3.046-.676 4.51l-15.239 49.935-15.239-49.934c-.446-1.464-.673-2.981-.675-4.511l-.019-20.852c.126-1.622-.273-3.294-1.242-4.743l-6.71-10.041c15.582 2.411 31.686 2.489 47.77 0zm36.999-36.65 14.658 18.151c2.765 3.424 3.685 7.997 2.438 12.238l-8.848 30.063c-.086.304-.446.431-.708.231l-28.159-21.55c9.733-15.972 18.256-23.119 20.619-39.133zm-93.863-9.624c25.963 7.449 53.416 7.449 79.379 0-.21 1.647 1.055 9.182-4.108 18.515-23.344 6.073-47.819 6.074-71.162 0-5.22-9.432-3.87-16.64-4.109-18.515zm-29.143 27.776 14.658-18.151c2.365 16.016 10.875 23.143 20.62 39.136l-28.159 21.549c-.249.192-.615.086-.709-.231l-8.847-30.063c-1.21-4.114-.408-8.717 2.437-12.24zm-50.497 162.007c0-.001 0-.002-.001-.004l-7.411-41.453c-.729-4.077-4.628-6.795-8.703-6.062-4.078.729-6.792 4.625-6.063 8.703l6.795 38.01-18.885 22.548c-1.037 1.237-2.816 1.471-4.137.548l-50.102-35.064c-1.293-.905-1.696-2.631-.937-4.014l48.378-88.161c6.588-12.006 17.249-21.342 30.019-26.288l44.052-17.063c.465 2.47.221 1.086 9.512 32.83 3.072 10.444 15.649 14.465 24.215 7.909l21.678-16.59.006 6.251c.002 3.009.449 5.995 1.328 8.875l22.085 72.368v145.472h-92.328zm111.829 290.943h-121.192c-.799 0-1.413-.665-1.386-1.453 1.632-47.695 15.631-102.523 24.753-133.685h21.02c4.142 0 7.5-3.357 7.5-7.5s-3.358-7.5-7.5-7.5h-16.472c1.633-5.509 2.483-11.244 2.539-16.99h118.01c7.083 0 11.391 3.335 12.266 3.717v9.658c-.686.299-5.077 3.616-12.076 3.616h-69.183c-4.142 0-7.5 3.357-7.5 7.5s3.358 7.5 7.5 7.5h41.721zm137.577-1.454c.028.797-.594 1.454-1.385 1.454h-121.192v-135.138h12.461c6.229 0 12.376-1.594 17.816-4.616.75.686 1.559 1.308 2.419 1.857-4.05 10.189-12.214 20.551-12.214 39.559 0 4.143 3.357 7.5 7.5 7.5s7.5-3.357 7.5-7.5c0-15.189 6.625-22.644 12.486-36.801h.19c5.653 13.564 12.426 21.261 12.426 36.511 0 4.143 3.357 7.5 7.5 7.5s7.5-3.357 7.5-7.5c0-19.089-8.222-29.467-12.155-39.307.36-.232.711-.476 1.052-.733 4.885 2.321 10.223 3.53 15.712 3.53h17.632c9.121 31.162 23.121 85.991 24.752 133.684z"/></g></svg>