<svg xmlns="http://www.w3.org/2000/svg" width="364.309" height="512" viewBox="0 0 364.309 512">
  <g id="bride" transform="translate(-73.845)">
    <g id="Group_48" data-name="Group 48">
      <g id="Group_47" data-name="Group 47">
        <g id="Group_46" data-name="Group 46">
          <path id="Path_957" data-name="Path 957" d="M318.71,400.91a10,10,0,1,1,9.8-8.04,10.087,10.087,0,0,1-9.8,8.04Z" fill="#fff"/>
        </g>
      </g>
      <path id="Path_958" data-name="Path 958" d="M438.129,501.282c-16.369-227.408-58.9-267.7-93.079-300.071-5.139-4.868-10.027-9.5-14.466-14.518V153.142a9.844,9.844,0,0,0,.329-1.3c.49-2.42,4.866-16.133,10.605-32.114,6.807-18.955,12.414-40.143-.71-59.362,0-.115.007-.23.007-.345V10a10,10,0,1,0-20,0V41.99c-22-13.624-44.122-11.029-64.771,7.577-21.213-19.6-42.978-22.833-64.86-9.619V10a10,10,0,0,0-20,0V58.412c-12.223,18.56-7.63,39.912-.7,59.229,5.3,14.788,9.62,28.045,10.935,32.706v36.346c-4.439,5.02-9.327,9.65-14.466,14.518-34.177,32.373-76.71,72.663-93.079,300.071A10,10,0,0,0,83.846,512H428.155a10,10,0,0,0,9.974-10.718ZM201.416,180.958V160.007H310.584v20.951Zm-2.809-122c12.223-8.493,26.458-13.156,47.688,9.045a9.5,9.5,0,0,0,4.3,5.851,10.021,10.021,0,0,0,14.929-5.651c21.449-22.316,37.249-15.435,49.929-5.6,15.184,11.771,16.875,23.54,7.241,50.368-2.872,8-6.719,19.187-9.167,27.037H199.181c-2.586-8.294-6.762-20.442-9.873-29.116-9.758-27.216-7.412-40.32,9.3-51.929ZM180.7,215.73c5.153-4.881,10.071-9.539,14.789-14.772h20.6c-.5,1.223-1.008,2.45-1.521,3.693-13.013,31.477-29.162,70.54-35.709,287.349H94.621C110.928,281.82,149.561,245.231,180.7,215.73ZM333.132,492c-.6-19.829-1.294-38.7-2.071-56.208a10,10,0,1,0-19.981.887c.765,17.24,1.45,35.808,2.042,55.321H198.877c6.438-212.584,21.8-249.758,34.184-279.708,1.567-3.792,3.079-7.449,4.537-11.334H274.4c1.458,3.885,2.97,7.543,4.538,11.336,8.885,21.492,18.956,45.852,26.518,134.018a10,10,0,0,0,19.927-1.709c-7.827-91.243-18.524-117.12-27.963-139.95-.514-1.243-1.021-2.471-1.522-3.694h20.606c4.718,5.233,9.636,9.892,14.789,14.772,31.144,29.5,69.776,66.09,86.083,276.27H333.132Z" fill="#fff"/>
    </g>
  </g>
</svg>
