<svg xmlns="http://www.w3.org/2000/svg" width="112.681" height="160.974" viewBox="0 0 112.681 160.974">
  <g id="coat" transform="translate(-88.002 -16)">
    <path id="Path_948" data-name="Path 948" d="M200.65,136.312l-16.1-101.95h0a2.683,2.683,0,0,0-1.912-2.161l-21.332-6.095-3.783-8.513A2.683,2.683,0,0,0,155.074,16H133.611a2.683,2.683,0,0,0-2.452,1.593l-3.783,8.513L106.044,32.2a2.683,2.683,0,0,0-1.912,2.161h0l-16.1,101.95a2.683,2.683,0,0,0,2.649,3.1h13.021l-4.916,23.6a2.683,2.683,0,0,0,1.427,2.947c.9.451,22.281,11.015,44.126,11.015s43.228-10.564,44.126-11.015a2.683,2.683,0,0,0,1.427-2.947l-4.916-23.6H198a2.683,2.683,0,0,0,2.649-3.1Zm-21.75-99.6-7.356,49.043H157.1l-5.717-20.01,16.542-21.269a2.683,2.683,0,0,0,.335-2.737L164.15,32.5ZM147.025,96.487V91.121h24.146v5.366Zm-29.512-5.366h13.415v5.366H117.513Zm18.78,0h5.366v5.366h-5.366ZM125.949,42.527l7.3-16.433,8.526,25.577,6.375,22.31Zm21.482,9.395.077-.268,8-25.4,7.2,16.2-13.146,16.9ZM144.577,43.1l-7.244-21.731h14.085ZM124.535,32.5l-4.108,9.24a2.683,2.683,0,0,0,.26,2.637l22.026,31.2a2.681,2.681,0,0,0,3.089,4.377l4.094,5.8H117.141l-7.357-49.043ZM93.824,134.048l12.891-81.634,5.433,36.226V98.894l-7.324,35.154Zm10.652,27.978,12.536-60.173h35.379v69.27a70.1,70.1,0,0,1-8.049.486C127.343,171.608,110.062,164.532,104.476,162.026Zm53.281,8.3V101.853h13.918l12.536,60.174A120,120,0,0,1,157.757,170.322Zm26.1-36.274-7.324-35.155V88.637l5.433-36.224,12.891,81.635Z" transform="translate(0)" fill="#fff"/>
    <ellipse id="Ellipse_20" data-name="Ellipse 20" cx="2.007" cy="3.01" rx="2.007" ry="3.01" transform="translate(142.185 106.737)" fill="#fff"/>
    <ellipse id="Ellipse_21" data-name="Ellipse 21" cx="2.007" cy="3.01" rx="2.007" ry="3.01" transform="translate(142.185 122.791)" fill="#fff"/>
    <ellipse id="Ellipse_22" data-name="Ellipse 22" cx="2.007" cy="3.01" rx="2.007" ry="3.01" transform="translate(142.185 138.845)" fill="#fff"/>
  </g>
</svg>
