<svg xmlns="http://www.w3.org/2000/svg" width="512.001" height="407.365" viewBox="0 0 512.001 407.365">
  <g id="high-heels" transform="translate(0.001 -0.499)">
    <path id="Path_958" data-name="Path 958" d="M442,367.859a10,10,0,1,0-10-10A10,10,0,0,0,442,367.859Zm0,0" fill="#fff"/>
    <path id="Path_959" data-name="Path 959" d="M2.387,148.18a110.047,110.047,0,0,0,11.648,31.766c17.648,31.652,25.93,64.613,25.93,94.477V397.863a10,10,0,0,0,10,10h40a10,10,0,0,0,10-10V286.293A150.867,150.867,0,0,1,115,220.832l.914-1.473a400.091,400.091,0,0,1,110,145.914c11.375,25.871,36.609,42.59,64.281,42.59h81.785c39.488,0,70.523-.816,93.629-4.793C477.09,401.094,512,395.09,512,367.86c0-15.4-12.758-37.758-32.5-56.961-13.258-12.9-41.18-35.375-79.16-40.961a10.009,10.009,0,0,0-8.156,2.469c-9.914,8.949-29.344,15.445-46.191,15.445-23.949,0-49.309-13.672-58.984-31.8a10.721,10.721,0,0,0-.633-1.031l-66.758-95.246A771.683,771.683,0,0,0,73.015,2.727,9.995,9.995,0,0,0,60.492,2.68,163.423,163.423,0,0,0,21.781,46.914C2.344,79.543-3.914,116.75,2.324,147.879c.02.1.039.2.063.3ZM79.965,286.293V387.859h-20V274.421c0-3.008-.1-6.25-.285-9.625-3.043-54.82-26.867-91.016-31.344-100.871a399.588,399.588,0,0,1,71.793,42.949c-10.8,17.477-20.164,48.137-20.164,79.418Zm-41-229.141A142.859,142.859,0,0,1,66.816,23.5,751.641,751.641,0,0,1,203.238,171.254l66.422,94.773c13.3,24.273,45.273,41.828,76.328,41.828,19.7,0,41.758-7.012,55.7-17.41,30.273,5.762,52.852,24.07,63.867,34.789C482.914,342.125,492,359.461,492,367.859c0,8.574-16.187,13.16-29.773,15.5-21.707,3.734-51.773,4.5-90.234,4.5H290.2c-19.742,0-37.789-12.023-45.973-30.637A419.757,419.757,0,0,0,21.058,138.886C17.43,114.277,22.9,84.125,38.965,57.152Zm0,0" fill="#fff"/>
    <path id="Path_960" data-name="Path 960" d="M289.984,367.859H401.992a10,10,0,0,0,0-20H289.984a10,10,0,1,0,0,20Zm0,0" fill="#fff"/>
  </g>
</svg>
