<svg xmlns="http://www.w3.org/2000/svg" width="414.032" height="511.998" viewBox="0 0 414.032 511.998">
  <g id="hoodie" transform="translate(-48.984)">
    <g id="Group_47" data-name="Group 47">
      <g id="Group_46" data-name="Group 46">
        <path id="Path_958" data-name="Path 958" d="M454.932,262.763a8.084,8.084,0,0,0-8.084,8.084v102.94L404.063,385.4V183.453a8.084,8.084,0,1,0-16.168,0V460.938H191.278a8.084,8.084,0,1,0,0,16.168H387.9v18.725H124.1V477.107h40.767a8.084,8.084,0,1,0,0-16.168H124.1V183.454a8.084,8.084,0,1,0-16.168,0V385.4l-42.784-11.61V134.238c0-24.257,28.849-43.425,54.872-55.253.139-.054.282-.091.419-.152a247.888,247.888,0,0,1,28.2-10.576l49.5,25.606v128.7a8.084,8.084,0,0,0,16.168,0V102.225l37.969,19.64a8.079,8.079,0,0,0,7.429,0L300.051,101V222.557a8.084,8.084,0,1,0,16.168,0V92.636l47.134-24.381a247.568,247.568,0,0,1,29.283,11.061c.132.059.266.1.4.154,25.741,11.864,53.812,30.841,53.812,54.767V243.365a8.084,8.084,0,1,0,16.168,0V134.238c0-32.6-32.77-55.03-60.514-68.182C382.931,10.859,345.36.666,343.738.252c-.155-.04-.312-.057-.467-.087s-.3-.064-.454-.084a7.514,7.514,0,0,0-.791-.058c-.1-.005-.191-.023-.289-.023H171.206c-.087,0-.171.016-.259.019a8.114,8.114,0,0,0-.823.061c-.154.02-.3.055-.455.085s-.313.047-.467.087c-1.61.412-38.927,10.55-58.554,65.261-27.98,13.073-61.664,35.673-61.664,68.723V425.713a8.083,8.083,0,0,0,5.967,7.8l52.985,14.377v56.022A8.084,8.084,0,0,0,116.02,512H395.979a8.082,8.082,0,0,0,8.084-8.084V447.89l52.986-14.377a8.084,8.084,0,0,0,5.967-7.8V270.847A8.082,8.082,0,0,0,454.932,262.763ZM256.47,84.511,226.106,53.155h60.73Zm87.4-67.014c7.683,3.475,24.533,13.654,37.393,39.7-8.745-3.2-15.02-4.963-16.462-5.357l-.193-.053a8.082,8.082,0,0,0-5.817.627L315.74,74.682A8.08,8.08,0,0,0,300.052,77.4V82.8l-38.9,20.12,1.124-1.161L311.724,50.7l0,0,18.3-18.9Zm-21.221-1.329L312.315,26.845l-9.823,10.142H210.447l-20.16-20.818H322.654ZM169.062,17.492l76.154,78.641-1.845,1.906-.654.675-28.4-14.692V77.4a8.084,8.084,0,0,0-16-1.657L153.2,52.41a8.227,8.227,0,0,0-.8-.358c-.084-.032-.168-.059-.252-.088q-.3-.1-.6-.183c-.093-.025-.185-.048-.28-.07-.221-.05-.443-.089-.667-.121-.066-.009-.129-.023-.2-.03a8.042,8.042,0,0,0-.863-.052l-.054,0c-.046,0-.093.009-.139.01-.259,0-.516.022-.774.051-.085.01-.169.019-.254.031a7.972,7.972,0,0,0-.935.187c-.947.255-6.923,1.9-15.5,4.988C144.724,31,161.4,20.941,169.062,17.492ZM107.936,431.14,65.152,419.531v-28.99l42.784,11.611V431.14Zm338.912-11.609L404.063,431.14V402.152l42.785-11.611Z" fill="#fff"/>
        <path id="Path_959" data-name="Path 959" d="M314.46,299.973a8.082,8.082,0,0,0-8.084-8.084H206.564a8.083,8.083,0,0,0-8.084,8.084,67.446,67.446,0,0,1-36.026,59.738,8.084,8.084,0,0,0-4.3,7.146v63.179a8.084,8.084,0,0,0,8.084,8.084H346.708a8.083,8.083,0,0,0,8.084-8.084V366.859a8.084,8.084,0,0,0-4.3-7.146A67.446,67.446,0,0,1,314.46,299.973Zm24.164,121.979H174.318V371.564a83.541,83.541,0,0,0,39.945-63.506h84.418a83.541,83.541,0,0,0,39.945,63.51v50.384Z" fill="#fff"/>
      </g>
    </g>
  </g>
</svg>
