<svg id="instagram" xmlns="http://www.w3.org/2000/svg" width="44.411" height="44.42" viewBox="0 0 44.411 44.42">
  <path id="Path_84" data-name="Path 84" d="M44.747,13.06a16.231,16.231,0,0,0-1.032-5.389,11.379,11.379,0,0,0-6.5-6.5A16.273,16.273,0,0,0,31.826.139C29.449.026,28.694,0,22.663,0s-6.786.026-9.155.13A16.236,16.236,0,0,0,8.12,1.163,10.838,10.838,0,0,0,4.18,3.731,10.936,10.936,0,0,0,1.62,7.662,16.275,16.275,0,0,0,.588,13.051C.475,15.429.449,16.184.449,22.214S.475,29,.579,31.369a16.23,16.23,0,0,0,1.033,5.389,11.377,11.377,0,0,0,6.5,6.5A16.275,16.275,0,0,0,13.5,44.29c2.369.1,3.124.13,9.155.13s6.786-.026,9.155-.13A16.227,16.227,0,0,0,37.2,43.257a11.362,11.362,0,0,0,6.5-6.5,16.286,16.286,0,0,0,1.032-5.389c.1-2.369.13-3.124.13-9.155s-.009-6.786-.113-9.155Zm-4,18.136a12.175,12.175,0,0,1-.764,4.122,7.368,7.368,0,0,1-4.217,4.217,12.218,12.218,0,0,1-4.122.763c-2.343.1-3.046.13-8.972.13S16.033,40.4,13.7,40.3a12.169,12.169,0,0,1-4.122-.763,6.835,6.835,0,0,1-2.551-1.658,6.906,6.906,0,0,1-1.658-2.551A12.22,12.22,0,0,1,4.605,31.2c-.1-2.343-.13-3.046-.13-8.973s.026-6.638.13-8.972a12.169,12.169,0,0,1,.763-4.122A6.752,6.752,0,0,1,7.035,6.586,6.9,6.9,0,0,1,9.586,4.929a12.227,12.227,0,0,1,4.122-.764c2.343-.1,3.046-.13,8.972-.13s6.638.026,8.973.13a12.175,12.175,0,0,1,4.122.764,6.83,6.83,0,0,1,2.551,1.657,6.9,6.9,0,0,1,1.658,2.551,12.225,12.225,0,0,1,.764,4.122c.1,2.343.13,3.046.13,8.972s-.026,6.621-.13,8.964Zm0,0" transform="translate(-0.449)" fill="#22223a"/>
  <path id="Path_85" data-name="Path 85" d="M136.36,124.5a11.411,11.411,0,1,0,11.411,11.411A11.414,11.414,0,0,0,136.36,124.5Zm0,18.813a7.4,7.4,0,1,1,7.4-7.4A7.4,7.4,0,0,1,136.36,143.313Zm0,0" transform="translate(-114.146 -113.697)" fill="#22223a"/>
  <path id="Path_86" data-name="Path 86" d="M367.778,91.266a2.664,2.664,0,1,1-2.664-2.664A2.664,2.664,0,0,1,367.778,91.266Zm0,0" transform="translate(-331.037 -80.913)" fill="#22223a"/>
</svg>
