<svg id="Capa_1" enable-background="new 0 0 512 512" height="512" viewBox="0 0 512 512" width="512" xmlns="http://www.w3.org/2000/svg"><g><path d="m427.942 473.89-25.655-335.238c.003-.423-.029-.84-.096-1.251l-6.16-80.488v-32.847c.001-13.27-10.795-24.066-24.065-24.066h-231.932c-13.271 0-24.066 10.796-24.066 24.066v32.847l-6.16 80.488c-.067.41-.099.828-.096 1.25l-25.654 335.236c-.979 12.725 8.164 24.014 20.815 25.701l91.465 12.195c6.596.874 13.084-.934 18.268-5.105 5.185-4.171 8.344-10.12 8.898-16.756l22.835-276.123h19.322l22.836 276.128c.553 6.631 3.712 12.58 8.897 16.751 4.329 3.483 9.566 5.322 15.017 5.322 1.077 0 2.163-.072 3.251-.217l91.466-12.195c12.65-1.688 21.793-12.977 20.814-25.698zm-147.376-261.86 60.086-15.021c4.019-1.005 6.462-5.077 5.457-9.096-1.004-4.018-5.081-6.461-9.095-5.457l-65.372 16.343h-8.142v-35.406c18.833-3.53 33.133-20.085 33.133-39.927v-58.767h51.692c-.283 2.999-.426 6.028-.426 9.066 0 32.692 16.103 60.694 39.758 70.295l22.638 295.825-109.68 14.585zm-40.208-13.231-65.372-16.343c-4.012-1-8.09 1.439-9.095 5.457-1.005 4.019 1.439 8.091 5.457 9.096l60.086 15.021-20.053 242.487-109.68-14.586 22.642-295.87c23.655-9.6 39.758-37.603 39.758-70.295 0-3.038-.143-6.067-.426-9.066h50.909c4.142 0 7.5-3.357 7.5-7.5s-3.358-7.5-7.5-7.5h-50.483v-34.7h183.799v34.699h-58.766c-4.142 0-7.5 3.357-7.5 7.5 0 .044.006.086.007.129-.001.043-.007.086-.007.129v66.008c0 11.525-7.647 21.296-18.133 24.511v-74.21c0-4.143-3.358-7.5-7.5-7.5s-7.5 3.357-7.5 7.5v125.033zm-109.942-134.1h18.159c.336 2.99.526 6.018.526 9.066 0 22.581-9.378 42.777-23.401 52.561zm251.168 0 4.716 61.627c-14.023-9.784-23.401-29.98-23.401-52.561 0-3.048.19-6.076.526-9.066zm-.552-40.633v25.633h-18.133v-34.699h9.066c5 0 9.067 4.067 9.067 9.066zm-250.064 0c0-4.999 4.067-9.066 9.066-9.066h9.066v34.699h-18.133v-25.633zm74.236 470.925c-1.954 1.571-4.399 2.251-6.882 1.923l-91.465-12.195c-4.766-.636-8.211-4.888-7.842-9.685l1.54-20.124 109.588 14.574-1.587 19.197c-.209 2.498-1.399 4.739-3.352 6.31zm199.941-10.272-91.466 12.195c-2.481.333-4.929-.352-6.882-1.923s-3.144-3.813-3.351-6.306l-1.592-19.247 109.589-14.573 1.544 20.172c.368 4.794-3.077 9.046-7.842 9.682z"/><path d="m256 48.133h16.566c4.142 0 7.5-3.358 7.5-7.5 0-4.143-3.358-7.5-7.5-7.5h-16.566c-4.142 0-7.5 3.357-7.5 7.5 0 4.142 3.358 7.5 7.5 7.5z"/></g></svg>