<svg xmlns="http://www.w3.org/2000/svg" width="344.028" height="512" viewBox="0 0 344.028 512">
  <g id="jeans" transform="translate(-83.986)">
    <path id="Path_958" data-name="Path 958" d="M427.942,473.89,402.287,138.652a7.433,7.433,0,0,0-.1-1.251l-6.16-80.488V24.066A24.092,24.092,0,0,0,371.966,0H140.034a24.093,24.093,0,0,0-24.066,24.066V56.913l-6.16,80.488a7.422,7.422,0,0,0-.1,1.25L84.058,473.887a24.077,24.077,0,0,0,20.815,25.7l91.465,12.2A24.069,24.069,0,0,0,223.5,489.922L246.339,213.8h19.322L288.5,489.927A24.08,24.08,0,0,0,312.411,512a24.607,24.607,0,0,0,3.251-.217l91.466-12.2a24.077,24.077,0,0,0,20.814-25.7ZM280.566,212.03l60.086-15.021a7.5,7.5,0,0,0-3.638-14.553L271.642,198.8H263.5V163.393a40.692,40.692,0,0,0,33.133-39.927V64.7h51.692c-.283,3-.426,6.028-.426,9.066,0,32.692,16.1,60.694,39.758,70.295l22.638,295.825L300.615,454.47ZM240.358,198.8l-65.372-16.343a7.5,7.5,0,0,0-3.638,14.553l60.086,15.021L211.381,454.517,101.7,439.931l22.642-295.87c23.655-9.6,39.758-37.6,39.758-70.295,0-3.038-.143-6.067-.426-9.066h50.909a7.5,7.5,0,0,0,0-15H164.1V15H347.9V49.7H289.134a7.5,7.5,0,0,0-7.5,7.5c0,.044.006.086.007.129s-.007.086-.007.129v66.008A25.677,25.677,0,0,1,263.5,147.976V73.766a7.5,7.5,0,0,0-15,0V198.8ZM130.416,64.7h18.159a81.2,81.2,0,0,1,.526,9.066c0,22.581-9.378,42.777-23.4,52.561Zm251.168,0,4.716,61.627c-14.023-9.784-23.4-29.98-23.4-52.561a81.2,81.2,0,0,1,.526-9.066Zm-.552-40.633V49.7H362.9V15h9.066a9.076,9.076,0,0,1,9.067,9.066Zm-250.064,0A9.076,9.076,0,0,1,140.034,15H149.1V49.7H130.967V24.066ZM205.2,494.991a9,9,0,0,1-6.882,1.923l-91.465-12.2a9.071,9.071,0,0,1-7.842-9.685l1.54-20.124,109.588,14.574-1.587,19.2a8.986,8.986,0,0,1-3.352,6.31Zm199.941-10.272-91.466,12.2a9.066,9.066,0,0,1-10.233-8.229l-1.592-19.247,109.589-14.573,1.544,20.172a9.072,9.072,0,0,1-7.842,9.682Z" fill="#fff"/>
    <path id="Path_959" data-name="Path 959" d="M256,48.133h16.566a7.5,7.5,0,0,0,0-15H256a7.5,7.5,0,0,0,0,15Z" fill="#fff"/>
  </g>
</svg>
