<svg xmlns="http://www.w3.org/2000/svg" width="363.791" height="365.535" viewBox="0 0 363.791 365.535">
  <g id="jewelry-set" transform="translate(-0.872)">
    <path id="Path_958" data-name="Path 958" d="M35.206,97.117a4.983,4.983,0,0,0-3.051-8.936H28.273V58.449A10.791,10.791,0,0,0,17.5,47.67a6.622,6.622,0,1,1,.034-13.244c.038,0,3.385.129,4.789,1.987,4,5.287,9.914,6.241,15.067,2.428A5,5,0,0,0,31.436,30.8a3.492,3.492,0,0,1-.476.3,4.086,4.086,0,0,1-.666-.726c-4.42-5.842-12-5.955-12.8-5.954a16.622,16.622,0,0,0,0,33.244.78.78,0,0,1,.778.779V88.181H14.391a4.983,4.983,0,0,0-3.051,8.936,18.513,18.513,0,1,0,23.866,0ZM23.273,119.764a8.514,8.514,0,1,1,8.514-8.514A8.524,8.524,0,0,1,23.273,119.764Z" fill="#fff"/>
    <path id="Path_959" data-name="Path 959" d="M90.366,86.826a18.477,18.477,0,0,0-6.582-14.134,4.983,4.983,0,0,0-3.05-8.937H76.852V34.025A10.791,10.791,0,0,0,66.074,23.246,6.623,6.623,0,1,1,66.106,10c.038,0,3.386.13,4.79,1.985,4,5.291,9.914,6.248,15.067,2.432A5,5,0,0,0,80.014,6.38a3.373,3.373,0,0,1-.474.3,4.149,4.149,0,0,1-.668-.728C74.455.116,66.893.028,66.074,0a16.623,16.623,0,0,0,0,33.246.779.779,0,0,1,.778.779V63.756H62.971a4.983,4.983,0,0,0-3.05,8.937A18.507,18.507,0,1,0,90.366,86.826ZM71.852,95.34a8.514,8.514,0,1,1,8.514-8.514A8.524,8.524,0,0,1,71.852,95.34Z" fill="#fff"/>
    <path id="Path_960" data-name="Path 960" d="M363.179,218.516a15.578,15.578,0,0,0-3.487-9.829,15.586,15.586,0,0,0,.091-22.74,15.618,15.618,0,0,0-3.073-22.7,15.587,15.587,0,0,0-6.294-22.058,15.641,15.641,0,0,0-9.453-20.887,15.569,15.569,0,0,0-12.494-19.317c.048-.5.076-1,.076-1.506a15.67,15.67,0,0,0-15.45-15.647,15.617,15.617,0,0,0-24.686-11.79,124.568,124.568,0,0,0-62.082-19.671V51.5a5,5,0,0,0-10,0v.868A124.571,124.571,0,0,0,154.246,72.04,15.616,15.616,0,0,0,129.56,83.829a15.671,15.671,0,0,0-15.451,15.647c0,.509.028,1.01.076,1.506A15.569,15.569,0,0,0,101.691,120.3a15.638,15.638,0,0,0-9.453,20.887,15.589,15.589,0,0,0-6.294,22.058,15.618,15.618,0,0,0-3.073,22.7,15.586,15.586,0,0,0,.092,22.741,15.6,15.6,0,0,0,2.643,22.226,19.149,19.149,0,0,0,8.344,29.768,22.739,22.739,0,0,0,19.07,33.944,25.89,25.89,0,0,0,33.392,31.944,28.2,28.2,0,0,0,47.561,20.39,29.428,29.428,0,0,0,54.708,0,28.2,28.2,0,0,0,47.561-20.39,25.893,25.893,0,0,0,33.394-31.943A22.739,22.739,0,0,0,348.7,260.682a19.15,19.15,0,0,0,8.345-29.768A15.63,15.63,0,0,0,363.179,218.516Zm-15.659,5.66a5.71,5.71,0,0,1-1.1-.109c-.207-.05-.407-.116-.617-.159a5.656,5.656,0,1,1,1.718.268Zm-24.8,18.551a19.078,19.078,0,0,0,1.312,6.922,22.754,22.754,0,0,0-17.459,26.667c-.568-.038-1.14-.063-1.718-.063a25.928,25.928,0,0,0-25.836,24.2,28.212,28.212,0,0,0-36.9,14.813,29.4,29.4,0,0,0-41.58,0,28.215,28.215,0,0,0-36.9-14.815,25.929,25.929,0,0,0-25.838-24.2c-.578,0-1.149.025-1.718.063a22.754,22.754,0,0,0-17.458-26.667,19.113,19.113,0,0,0-9.486-24.166,15.551,15.551,0,0,0-3.316-18.378,15.611,15.611,0,0,0-.075-19.758,15.558,15.558,0,0,0,2.591-19.438,15.621,15.621,0,0,0,5.414-18.829,15.537,15.537,0,0,0,8.069-17.853A15.673,15.673,0,0,0,132.493,116.4c0-.509-.028-1.01-.076-1.506a15.663,15.663,0,0,0,12.958-14.472,15.653,15.653,0,0,0,14.75-20.283A114.6,114.6,0,0,1,216.366,62.38a4.974,4.974,0,0,0,9.918,0,114.563,114.563,0,0,1,56.242,17.759,15.651,15.651,0,0,0,14.749,20.281,15.664,15.664,0,0,0,12.957,14.472c-.048.5-.076,1-.076,1.506a15.672,15.672,0,0,0,10.676,14.829,15.536,15.536,0,0,0,8.07,17.853,15.622,15.622,0,0,0,5.414,18.83,15.556,15.556,0,0,0,2.591,19.437,15.613,15.613,0,0,0-.074,19.758,15.551,15.551,0,0,0-3.316,18.378A19.216,19.216,0,0,0,322.72,242.727ZM96.234,224.066a5.659,5.659,0,1,1,.613-.158C96.639,223.951,96.44,224.017,96.234,224.066Zm8.735-68.933a5.658,5.658,0,1,1-5.658-5.656A5.665,5.665,0,0,1,104.969,155.133Zm-10,15.226a5.658,5.658,0,1,1-5.658,5.658A5.664,5.664,0,0,1,94.966,170.359Zm-1.319,21.258a5.658,5.658,0,1,1-5.658,5.658A5.664,5.664,0,0,1,93.647,191.617ZM349,202.934a5.658,5.658,0,1,1,5.658-5.658A5.663,5.663,0,0,1,349,202.934Zm-6.976-26.916a5.658,5.658,0,1,1,5.658,5.658A5.664,5.664,0,0,1,342.028,176.018Zm1.312-15.225a5.658,5.658,0,1,1,5.659-5.66A5.664,5.664,0,0,1,343.34,160.793Zm-7.361-20.006a5.658,5.658,0,1,1,5.656-5.658A5.665,5.665,0,0,1,335.979,140.787ZM331.474,116.4a5.658,5.658,0,1,1-5.658-5.658A5.663,5.663,0,0,1,331.474,116.4Zm-12.93-16.921a5.658,5.658,0,1,1-5.658-5.658A5.664,5.664,0,0,1,318.544,99.475Zm-15.4-14.7a5.658,5.658,0,1,1-5.66-5.656A5.665,5.665,0,0,1,303.142,84.771ZM145.169,79.115a5.657,5.657,0,1,1-5.659,5.656A5.663,5.663,0,0,1,145.169,79.115Zm-15.4,14.7a5.658,5.658,0,1,1-5.659,5.658A5.663,5.663,0,0,1,129.766,93.816Zm-12.93,16.922a5.657,5.657,0,1,1-5.659,5.658A5.663,5.663,0,0,1,116.836,110.738Zm-10.163,18.733a5.658,5.658,0,1,1-5.658,5.658A5.664,5.664,0,0,1,106.673,129.471ZM98.247,233.862c.223-.045.438-.11.656-.165a9.208,9.208,0,0,1,6.148,17.153c-.374.156-.744.319-1.108.494a9.2,9.2,0,1,1-5.7-17.482Zm2.742,38.021a12.767,12.767,0,0,1,7.087-11.415c.282-.117.553-.256.828-.387a12.76,12.76,0,1,1-7.915,11.8ZM121.9,302.15a15.9,15.9,0,1,1,15.9,15.9A15.915,15.915,0,0,1,121.9,302.15Zm52.728,42.51a18.22,18.22,0,1,1,18.221-18.221A18.242,18.242,0,0,1,174.628,344.66Zm46.7,10.875a19.442,19.442,0,1,1,19.441-19.443A19.465,19.465,0,0,1,221.326,355.535Zm46.7-10.875a18.22,18.22,0,1,1,18.221-18.221A18.241,18.241,0,0,1,268.023,344.66Zm36.832-26.611a15.9,15.9,0,1,1,15.9-15.9A15.916,15.916,0,0,1,304.855,318.049Zm24.045-33.4a12.763,12.763,0,1,1,4.851-24.563c.274.13.543.268.823.385a12.752,12.752,0,0,1-5.674,24.178Zm13.033-32.707a9.157,9.157,0,0,1-3.228-.6c-.361-.174-.729-.336-1.1-.49a9.208,9.208,0,0,1,6.145-17.155c.22.055.435.12.658.166a9.206,9.206,0,0,1-2.472,18.074Z" fill="#fff"/>
  </g>
</svg>
