<svg xmlns="http://www.w3.org/2000/svg" width="67.012" height="80.414" viewBox="0 0 67.012 80.414">
  <g id="pyjamas" transform="translate(-56.001 -16)">
    <path id="Path_924" data-name="Path 924" d="M122.62,43.753a1.34,1.34,0,0,0,.168-1.691s-2.728-4.088-2.755-4.122L104.519,18.847A7.675,7.675,0,0,0,98.538,16H80.474a7.675,7.675,0,0,0-5.981,2.847L58.981,37.939a1.18,1.18,0,0,0-.077.1l-2.678,4.018a1.34,1.34,0,0,0,.168,1.691l4.021,4.021a1.34,1.34,0,0,0,1.691.168l4.01-2.673s.2-.156.215-.174L76.1,35.318V46.826a4.027,4.027,0,0,0,2.68,3.79v2.911a1.34,1.34,0,0,0,1.34,1.34h11.9l-.942,30.144a1.332,1.332,0,0,0-.04,1.291l-.1,3.328a2.659,2.659,0,0,0,.755,1.949,2.693,2.693,0,0,0,.542.428v3.067a1.34,1.34,0,0,0,1.34,1.34h8.041a1.34,1.34,0,0,0,1.34-1.34V92.1a2.665,2.665,0,0,0,1.441-2.155l1.24-14.245,1.24,14.245a2.666,2.666,0,0,0,1.441,2.154v2.975a1.34,1.34,0,0,0,1.34,1.34H117.7a1.34,1.34,0,0,0,1.34-1.34V92.007a2.7,2.7,0,0,0,.542-.429,2.659,2.659,0,0,0,.755-1.949L119.119,50.72a4.011,4.011,0,0,0-1.068-2.615,1.335,1.335,0,0,0,.552-.332ZM94.867,18.68h3.671a5.005,5.005,0,0,1,3.9,1.857l14.75,18.154-3.559,3.559L102.766,31.385a15.6,15.6,0,0,0-6.393-8.844l-2.105-1.4a5.326,5.326,0,0,0,.6-2.458Zm14.786,71.265-2.781-40.439H115.1a1.334,1.334,0,0,1,1.339,1.3l1.612,39.141Zm.742-47.14h-7.486V35.318ZM92.187,18.68a2.681,2.681,0,0,1-5.361,0ZM61.532,45.1l-2.467-2.467,1.164-1.746,3.049,3.049ZM76.246,31.385,65.382,42.25l-3.559-3.559,14.75-18.154a5,5,0,0,1,3.9-1.857h3.671a5.326,5.326,0,0,0,.6,2.458l-2.1,1.4a15.6,15.6,0,0,0-6.393,8.844Zm2.538,15.44V32.262a12.925,12.925,0,0,1,5.341-7.49l2.429-1.619a5.345,5.345,0,0,0,5.9,0l2.429,1.619a12.925,12.925,0,0,1,5.341,7.49V46.826a1.342,1.342,0,0,1-1.34,1.34H80.125a1.342,1.342,0,0,1-1.341-1.34ZM93.57,89.63,94.7,54.867l6.761-.616h2.83L102.44,89.63ZM81.465,52.186v-1.34H97.548v1.34Zm18.806,41.548H94.91v-1.34h5.361Zm4.021-39.483h-2.83v-4.34a4.066,4.066,0,0,0,.42-.405h2.41Zm-1.383-7.425v-1.34h10.316l.448.3v1.042Zm13.444,46.908h-5.361v-1.34h5.361ZM117.48,45.1l-1.716-1.144h-.006l-.024-.017,3.049-3.049,1.164,1.746Z" fill="#fff"/>
  </g>
</svg>
