<?xml version="1.0" encoding="iso-8859-1"?>
<!-- Generator: Adobe Illustrator 19.0.0, SVG Export Plug-In . SVG Version: 6.00 Build 0)  -->
<svg version="1.1" id="Capa_1" xmlns="http://www.w3.org/2000/svg" xmlns:xlink="http://www.w3.org/1999/xlink" x="0px" y="0px"
	 viewBox="0 0 472 472" style="enable-background:new 0 0 472 472;" xml:space="preserve">
<g>
	<g>
		<g>
			<path d="M416.139,139.592L240.003,58.864V28c0-6.627,5.373-12,12-12c6.627,0,12,5.373,12,12v4c0,4.418,3.582,8,8,8s8-3.582,8-8
				v-4c0-15.464-12.536-28-28-28c-15.464,0-28,12.536-28,28v30.96l-168.528,80.6c-9.614,4.703-15.643,14.539-15.472,25.24
				c0,15.022,12.178,27.2,27.2,27.2h44.8v176h32v104h16v-16h16v16h16v-16h16v16h16v-16h16v16h16v-16h16v16h16v-16h16v16h16v-16h16
				v16h16V192h52.8c15.185-0.164,27.361-12.607,27.197-27.792C431.885,153.636,425.719,144.065,416.139,139.592z M144.003,312v40
				h-16V192h16V312z M144.003,176h-16v-8c0-4.418,3.582-8,8-8h8V176z M336.003,408h-32v16h32v16h-176v-16h32v-16h-32v-16h176V408z
				 M298.219,376h-36.432l18.216-31.872L298.219,376z M289.219,328h45.6l-22.816,39.872L289.219,328z M248.003,367.872L225.219,328
				h45.6L248.003,367.872z M234.219,376h-36.432l18.216-31.872L234.219,376z M184.003,367.872L161.219,328h45.6L184.003,367.872z
				 M170.219,376h-10.216v-17.88L170.219,376z M336.003,376h-10.216l10.216-17.88V376z M336.003,280h-32v16h32v16h-176v-16h32v-16
				h-32V160h168c4.418,0,8,3.582,8,8V280z M404.803,176h-52.8v-8c0-13.255-10.745-24-24-24h-184h-8c-13.255,0-24,10.745-24,24v8
				h-44.8c-6.286-0.095-11.305-5.269-11.21-11.555c0.002-0.114,0.005-0.227,0.01-0.341c0.006-4.32,2.496-8.252,6.4-10.104
				l169.672-81.2l177.4,81.344c4.102,1.937,6.666,6.122,6.528,10.656C416.003,170.986,410.988,176,404.803,176z"/>
			<rect x="256.003" y="280" width="32" height="16"/>
			<rect x="208.003" y="280" width="32" height="16"/>
			<rect x="256.003" y="408" width="32" height="16"/>
			<rect x="208.003" y="408" width="32" height="16"/>
		</g>
	</g>
</g>
<g>
</g>
<g>
</g>
<g>
</g>
<g>
</g>
<g>
</g>
<g>
</g>
<g>
</g>
<g>
</g>
<g>
</g>
<g>
</g>
<g>
</g>
<g>
</g>
<g>
</g>
<g>
</g>
<g>
</g>
</svg>
