<svg xmlns="http://www.w3.org/2000/svg" width="452.968" height="511.811" viewBox="0 0 452.968 511.811">
  <g id="skirt" transform="translate(-29.421)">
    <path id="Path_960" data-name="Path 960" d="M482.373,436.042a1020.291,1020.291,0,0,0-30.088-207.109c-4.717-18.661-13.9-44.06-25.537-76.215-8.511-23.526-18.144-50.16-28.312-80.411V17.5c0-9.649-7.561-17.5-16.854-17.5H129.972c-9.293,0-16.854,7.851-16.854,17.5V72.141A1294.983,1294.983,0,0,0,62.985,230.722a1312.563,1312.563,0,0,0-33.5,204.72,17.756,17.756,0,0,0,8.483,16.75A429.268,429.268,0,0,0,228.72,511.164c94.2,5.942,195.964-30.248,245.136-59.138a17.566,17.566,0,0,0,8.517-15.984ZM255.76,497h-.926q-8.843,0-17.67-.406c.01-42.058,1.608-84.52,4.8-126.339,3.271-42.847,8.269-86.1,14.888-128.919,6.619,42.82,11.616,86.072,14.888,128.919,3.187,41.745,4.786,84.144,4.8,126.151-6.816.36-13.734.577-20.783.593ZM398.1,471.315A419.159,419.159,0,0,1,339.9,488.093a716.359,716.359,0,0,0,23.823-98.651,724.807,724.807,0,0,0,9.064-153.1A649.049,649.049,0,0,1,397.549,366.2a654.142,654.142,0,0,1,.555,105.111Zm68.155-32.223a424.569,424.569,0,0,1-52.7,26.173,668.711,668.711,0,0,0-1.07-100.352,664.591,664.591,0,0,0-37.43-169.448,10.182,10.182,0,0,0-11.9-6.6,10.362,10.362,0,0,0-8.022,11.289,712.417,712.417,0,0,1-6.218,186.817,700.857,700.857,0,0,1-25.837,104.32c-10.181,1.714-20.7,3.087-31.548,4.059-.041-42.04-1.654-84.461-4.843-126.233-3.951-51.746-10.4-104.077-19.157-155.541a10.892,10.892,0,0,0-21.375,0c-8.761,51.464-15.206,103.795-19.157,155.541-3.2,41.885-4.811,84.409-4.844,126.539q-16.893-1.383-33.641-4.182a700.927,700.927,0,0,1-25.9-104.5,7.5,7.5,0,1,0-14.795,2.475A716.18,716.18,0,0,0,171.721,488.3a413.907,413.907,0,0,1-58.258-16.8,648.813,648.813,0,0,1,25.309-235.164,728.078,728.078,0,0,0,4.1,118.2,7.5,7.5,0,1,0,14.9-1.744,715.841,715.841,0,0,1-1.362-152.645,10.364,10.364,0,0,0-8.022-11.289,10.175,10.175,0,0,0-11.9,6.6A663.889,663.889,0,0,0,98,465.426,422.729,422.729,0,0,1,45.58,439.265a2.727,2.727,0,0,1-1.147-2.582A1297.3,1297.3,0,0,1,77.55,234.312,1279.973,1279.973,0,0,1,125.432,81.873,870.025,870.025,0,0,0,262.4,91.706a7.5,7.5,0,0,0-.057-15h-.059A854.918,854.918,0,0,1,128.118,67.1V17.5a2.3,2.3,0,0,1,1.854-2.5H381.583a2.3,2.3,0,0,1,1.854,2.5V67.091a856.864,856.864,0,0,1-86.349,8.639,7.5,7.5,0,1,0,.728,14.982,872.026,872.026,0,0,0,88.03-8.795c9.62,28.424,18.712,53.558,26.8,75.9,11.49,31.763,20.566,56.852,25.1,74.789a1005.333,1005.333,0,0,1,29.645,204.058,2.689,2.689,0,0,1-1.128,2.424Z" fill="#fff"/>
  </g>
</svg>
