<svg id="telegram" xmlns="http://www.w3.org/2000/svg" width="45.197" height="45.197" viewBox="0 0 45.197 45.197">
  <path id="telegram-2" data-name="telegram" d="M22.6,45.2A22.6,22.6,0,1,0,0,22.6,22.595,22.595,0,0,0,22.6,45.2ZM10.341,22.109l21.789-8.4c1.011-.365,1.895.247,1.567,1.776l0,0L29.988,32.96c-.275,1.239-1.011,1.54-2.041.957L22.3,29.753l-2.725,2.625a1.425,1.425,0,0,1-1.139.556l.4-5.749L29.3,17.725c.456-.4-.1-.627-.7-.228L15.663,25.644,10.085,23.9c-1.211-.384-1.237-1.211.256-1.795Z" fill="#22223a"/>
</svg>
