<svg id="whatsapp" xmlns="http://www.w3.org/2000/svg" width="44.981" height="45.197" viewBox="0 0 44.981 45.197">
  <path id="whatsapp-2" data-name="whatsapp" d="M38.677,6.568A22.4,22.4,0,0,0,3.427,33.591L.25,45.2l11.873-3.114a22.372,22.372,0,0,0,10.7,2.726h.009A22.406,22.406,0,0,0,38.677,6.568ZM22.834,41.026h-.008a18.592,18.592,0,0,1-9.474-2.595l-.679-.4L5.627,39.876l1.881-6.869-.443-.7a18.615,18.615,0,1,1,15.769,8.724ZM33.045,27.084c-.559-.28-3.311-1.634-3.824-1.821s-.886-.28-1.259.28-1.446,1.821-1.772,2.194-.653.42-1.212.14a15.285,15.285,0,0,1-4.5-2.778,16.88,16.88,0,0,1-3.113-3.876c-.326-.561,0-.834.246-1.142a15.829,15.829,0,0,0,1.4-1.914,1.029,1.029,0,0,0-.047-.98c-.14-.28-1.259-3.034-1.725-4.155-.455-1.091-.916-.943-1.259-.961-.326-.016-.7-.02-1.073-.02a2.055,2.055,0,0,0-1.492.7,6.276,6.276,0,0,0-1.958,4.668c0,2.754,2.005,5.415,2.285,5.789s3.946,6.026,9.56,8.45a32.029,32.029,0,0,0,3.19,1.179,7.672,7.672,0,0,0,3.525.222c1.075-.161,3.311-1.354,3.777-2.661a4.676,4.676,0,0,0,.326-2.661c-.14-.233-.513-.373-1.072-.654Zm0,0" transform="translate(-0.25)" fill="#22223a" fill-rule="evenodd"/>
</svg>
