<svg xmlns="http://www.w3.org/2000/svg" width="193.291" height="126.271" viewBox="0 0 193.291 126.271">
  <g id="Group_3" data-name="Group 3" transform="translate(-49.826 -779.744)">
    <path id="Path_24" data-name="Path 24" d="M-477.565,671.013l21.54-24.737,50.175,24.737-6.436,23.7L-432.731,748.1l-47.7-28.016,24.408-15.144-25.245-29.425,3.705-4.5" transform="translate(628 149.399)" fill="#fff" stroke="#707070" stroke-width="1"/>
    <path id="Path_2" data-name="Path 2" d="M100,400h60l15,80H85Z" transform="translate(-217.613 526.947) rotate(-30)" fill="#fff" stroke="#f0005e" stroke-width="8"/>
    <path id="Path_4" data-name="Path 4" d="M98.244,409.853" transform="translate(-15.03 402.998)" fill="none" stroke="#707070" stroke-width="1"/>
    <g id="Subtraction_1" data-name="Subtraction 1" transform="translate(105.88 808.055) rotate(-30)">
      <path id="Path_20" data-name="Path 20" d="M7-6H-27a16.888,16.888,0,0,1,4.979-12.021A16.888,16.888,0,0,1-10-23,16.889,16.889,0,0,1,2.021-18.021,16.888,16.888,0,0,1,7-6Z" fill="#fff"/>
      <path id="Path_21" data-name="Path 21" d="M3.68-9A13.906,13.906,0,0,0-.1-15.9,13.908,13.908,0,0,0-10-20a13.908,13.908,0,0,0-9.9,4.1A13.905,13.905,0,0,0-23.68-9H3.68m6.1,6H-29.776A20.222,20.222,0,0,1-30-6a19.869,19.869,0,0,1,5.858-14.142A19.869,19.869,0,0,1-10-26,19.869,19.869,0,0,1,4.142-20.142,19.869,19.869,0,0,1,10-6a20.228,20.228,0,0,1-.224,3Z" fill="#f0005e"/>
    </g>
    <g id="Subtraction_3" data-name="Subtraction 3" transform="translate(204.451 817.261) rotate(30)">
      <path id="Path_22" data-name="Path 22" d="M7-6H-27a16.888,16.888,0,0,1,4.979-12.021A16.888,16.888,0,0,1-10-23,16.889,16.889,0,0,1,2.021-18.021,16.888,16.888,0,0,1,7-6Z" fill="#fff"/>
      <path id="Path_23" data-name="Path 23" d="M3.68-9A13.906,13.906,0,0,0-.1-15.9,13.908,13.908,0,0,0-10-20a13.908,13.908,0,0,0-9.9,4.1A13.905,13.905,0,0,0-23.68-9H3.68m6.1,6H-29.776A20.222,20.222,0,0,1-30-6a19.869,19.869,0,0,1,5.858-14.142A19.869,19.869,0,0,1-10-26,19.869,19.869,0,0,1,4.142-20.142,19.869,19.869,0,0,1,10-6a20.228,20.228,0,0,1-.224,3Z" fill="#4f4e60"/>
    </g>
    <path id="Path_9" data-name="Path 9" d="M161.049,665.131" transform="translate(-46.03 150.998)" fill="none" stroke="#707070" stroke-width="1"/>
    <path id="Path_10" data-name="Path 10" d="M184.263,668.861l5.676-6.212L200.881,675.2l-5.569,6.73Z" transform="translate(-46.03 150.998)" fill="#fff"/>
    <path id="Path_3" data-name="Path 3" d="M100,400h60l3.1,16.513L175,480H85Z" transform="translate(285.387 396.947) rotate(30)" fill="none" stroke="#4f4e60" stroke-width="8"/>
    <path id="Path_12" data-name="Path 12" d="M187.657,712.468l17.726,10.04-8.706,4.785-17.413-9.883Z" transform="translate(-45.781 151.205)" fill="#fff"/>
    <path id="Line_1" data-name="Line 1" d="M71,0,39.383,18.258,0,41" transform="translate(100.47 856.498)" fill="none" stroke="#f0005e" stroke-width="8"/>
  </g>
</svg>
