<svg xmlns="http://www.w3.org/2000/svg" width="193.291" height="126.271" viewBox="0 0 193.291 126.271">
  <g id="Group_4" data-name="Group 4" transform="translate(-64.856 -602.746)">
    <path id="Path_4" data-name="Path 4" d="M98.244,409.853" transform="translate(0 226)" fill="none" stroke="#707070" stroke-width="1"/>
    <path id="Path_2" data-name="Path 2" d="M100,400h60l15,80H85Z" transform="translate(-202.583 349.949) rotate(-30)" fill="none" stroke="#f0005e" stroke-width="8"/>
    <g id="Subtraction_1" data-name="Subtraction 1" transform="translate(120.91 631.057) rotate(-30)">
      <path id="Path_953" data-name="Path 953" d="M9.776-3H-29.776A20.227,20.227,0,0,1-30-6a19.869,19.869,0,0,1,5.858-14.142A19.869,19.869,0,0,1-10-26,19.869,19.869,0,0,1,4.142-20.142,19.869,19.869,0,0,1,10-6a20.222,20.222,0,0,1-.224,3Z" fill="none"/>
      <path id="Path_954" data-name="Path 954" d="M3.68-9A13.906,13.906,0,0,0-.1-15.9,13.908,13.908,0,0,0-10-20a13.908,13.908,0,0,0-9.9,4.1A13.905,13.905,0,0,0-23.68-9H3.68m6.1,6H-29.776A20.222,20.222,0,0,1-30-6a19.869,19.869,0,0,1,5.858-14.142A19.869,19.869,0,0,1-10-26,19.869,19.869,0,0,1,4.142-20.142,19.869,19.869,0,0,1,10-6a20.228,20.228,0,0,1-.224,3Z" fill="#f0005e"/>
    </g>
    <g id="Subtraction_3" data-name="Subtraction 3" transform="translate(219.481 640.263) rotate(30)">
      <path id="Path_955" data-name="Path 955" d="M9.776-3H-29.776A20.227,20.227,0,0,1-30-6a19.869,19.869,0,0,1,5.858-14.142A19.869,19.869,0,0,1-10-26,19.869,19.869,0,0,1,4.142-20.142,19.869,19.869,0,0,1,10-6a20.222,20.222,0,0,1-.224,3Z" fill="none"/>
      <path id="Path_956" data-name="Path 956" d="M3.68-9A13.906,13.906,0,0,0-.1-15.9,13.908,13.908,0,0,0-10-20a13.908,13.908,0,0,0-9.9,4.1A13.905,13.905,0,0,0-23.68-9H3.68m6.1,6H-29.776A20.222,20.222,0,0,1-30-6a19.869,19.869,0,0,1,5.858-14.142A19.869,19.869,0,0,1-10-26,19.869,19.869,0,0,1,4.142-20.142,19.869,19.869,0,0,1,10-6a20.228,20.228,0,0,1-.224,3Z" fill="#4f4e60"/>
    </g>
    <path id="Path_9" data-name="Path 9" d="M161.049,665.131" transform="translate(-31 -26)" fill="none" stroke="#707070" stroke-width="1"/>
    <path id="Path_12" data-name="Path 12" d="M187.657,712.468l17.726,10.04-8.706,4.785-17.413-9.883Z" transform="translate(-31 -26)" fill="#fff"/>
    <path id="Path_3" data-name="Path 3" d="M100,400h60l15,80H85Z" transform="translate(300.417 219.949) rotate(30)" fill="none" stroke="#4f4e60" stroke-width="8"/>
    <line id="Line_1" data-name="Line 1" x1="71" y2="41" transform="translate(115.5 679.5)" fill="none" stroke="#f0005e" stroke-width="8"/>
  </g>
</svg>
