<svg xmlns="http://www.w3.org/2000/svg" width="193.29" height="126.269" viewBox="0 0 193.29 126.269">
  <g id="Group_6" data-name="Group 6" transform="translate(-49.826 -590.746)">
    <g id="Group_5" data-name="Group 5" transform="translate(-15.029 -12)">
      <path id="Path_4" data-name="Path 4" d="M98.244,409.853" transform="translate(0 226)" fill="none" stroke="#707070" stroke-width="1"/>
      <path id="Path_2" data-name="Path 2" d="M100,400h60l15,80H85Z" transform="translate(-202.583 349.949) rotate(-30)" fill="none" stroke="#f0005e" stroke-width="8"/>
      <g id="Subtraction_1" data-name="Subtraction 1" transform="translate(120.91 631.057) rotate(-30)" fill="none">
        <path d="M9.776-3H-29.776A20.227,20.227,0,0,1-30-6a19.869,19.869,0,0,1,5.858-14.142A19.869,19.869,0,0,1-10-26,19.869,19.869,0,0,1,4.142-20.142,19.869,19.869,0,0,1,10-6a20.229,20.229,0,0,1-.224,3Z" stroke="none"/>
        <path d="M 3.67977499961853 -8.999700546264648 C 3.116262435913086 -11.59434986114502 1.821792364120483 -13.9773998260498 -0.1004897058010101 -15.89968967437744 C -2.744689702987671 -18.54387855529785 -6.260367393493652 -20.00010108947754 -9.999900817871094 -20.00010108947754 C -13.73943424224854 -20.00010108947754 -17.25511169433594 -18.54387855529785 -19.89929008483887 -15.89971160888672 C -21.82158851623535 -13.9774055480957 -23.11606216430664 -11.59435176849365 -23.6795768737793 -8.999700546264648 L 3.67977499961853 -8.999700546264648 M 9.77622127532959 -2.999700784683228 L -29.77602386474609 -2.999700784683228 C -29.92477798461914 -3.988256454467773 -29.99970054626465 -4.997534275054932 -29.99970054626465 -6.000300884246826 C -29.99970054626465 -11.34250068664551 -27.91936683654785 -16.36490058898926 -24.14194488525391 -20.1423454284668 C -20.36450004577637 -23.91976737976074 -15.34210109710693 -26.00010108947754 -9.999900817871094 -26.00010108947754 C -4.657701015472412 -26.00010108947754 0.3646991848945618 -23.91976737976074 4.142143726348877 -20.1423454284668 C 7.919565677642822 -16.36490058898926 9.999898910522461 -11.34250068664551 9.999898910522461 -6.000300884246826 C 9.999898910522461 -4.995811939239502 9.924688339233398 -3.9865562915802 9.77634334564209 -3.000556468963623 L 9.77622127532959 -2.999700784683228 Z" stroke="none" fill="#f0005e"/>
      </g>
      <g id="Subtraction_3" data-name="Subtraction 3" transform="translate(219.481 640.263) rotate(30)" fill="none">
        <path d="M9.776-3H-29.776A20.227,20.227,0,0,1-30-6a19.869,19.869,0,0,1,5.858-14.142A19.869,19.869,0,0,1-10-26,19.869,19.869,0,0,1,4.142-20.142,19.869,19.869,0,0,1,10-6a20.229,20.229,0,0,1-.224,3Z" stroke="none"/>
        <path d="M 3.67977499961853 -8.999700546264648 C 3.116262435913086 -11.59434986114502 1.821792364120483 -13.9773998260498 -0.1004897058010101 -15.89968967437744 C -2.744689702987671 -18.54387855529785 -6.260367393493652 -20.00010108947754 -9.999900817871094 -20.00010108947754 C -13.73943424224854 -20.00010108947754 -17.25511169433594 -18.54387855529785 -19.89929008483887 -15.89971160888672 C -21.82158851623535 -13.9774055480957 -23.11606216430664 -11.59435176849365 -23.6795768737793 -8.999700546264648 L 3.67977499961853 -8.999700546264648 M 9.77622127532959 -2.999700784683228 L -29.77602386474609 -2.999700784683228 C -29.92477798461914 -3.988256454467773 -29.99970054626465 -4.997534275054932 -29.99970054626465 -6.000300884246826 C -29.99970054626465 -11.34250068664551 -27.91936683654785 -16.36490058898926 -24.14194488525391 -20.1423454284668 C -20.36450004577637 -23.91976737976074 -15.34210109710693 -26.00010108947754 -9.999900817871094 -26.00010108947754 C -4.657701015472412 -26.00010108947754 0.3646991848945618 -23.91976737976074 4.142143726348877 -20.1423454284668 C 7.919565677642822 -16.36490058898926 9.999898910522461 -11.34250068664551 9.999898910522461 -6.000300884246826 C 9.999898910522461 -4.995811939239502 9.924688339233398 -3.9865562915802 9.77634334564209 -3.000556468963623 L 9.77622127532959 -2.999700784683228 Z" stroke="none" fill="#4f4e60"/>
      </g>
      <path id="Path_9" data-name="Path 9" d="M161.049,665.131" transform="translate(-31 -26)" fill="none" stroke="#707070" stroke-width="1"/>
      <path id="Path_10" data-name="Path 10" d="M184.263,668.861l5.676-6.212L200.881,675.2l-5.569,6.73Z" transform="translate(-31 -26)" fill="#fff"/>
      <path id="Path_12" data-name="Path 12" d="M187.657,712.468l17.726,10.04-8.706,4.785-17.413-9.883Z" transform="translate(-31 -26)" fill="#fff"/>
      <path id="Path_3" data-name="Path 3" d="M100,400h60l15,80H85Z" transform="translate(300.417 219.949) rotate(30)" fill="none" stroke="#4f4e60" stroke-width="8"/>
      <path id="Path_12-2" data-name="Path 12" d="M187.657,712.468l17.726,10.04-8.706,4.785-17.413-9.883Z" transform="translate(-30.752 -26.001)" fill="#fff"/>
      <line id="Line_1" data-name="Line 1" x1="71" y2="41" transform="translate(115.5 679.5)" fill="none" stroke="#f0005e" stroke-width="8"/>
    </g>
  </g>
</svg>
